# Blender v3.5.0 OBJ File: ''
# www.blender.org
mtllib mi.mtl
o Cube
v -0.310163 0.071269 0.252550
v -0.244333 -0.154384 0.252550
v -0.310163 0.071269 -0.252550
v -0.244333 -0.154384 -0.252550
v 0.244333 0.238767 0.252550
v 0.310163 0.013114 0.252550
v 0.244333 0.238767 -0.252550
v 0.310163 0.013114 -0.252550
v -0.397621 0.262926 0.252550
v -0.397621 0.262926 -0.252550
v 0.360327 0.509409 0.252550
v 0.360327 0.509409 -0.252550
v -0.465774 0.472500 0.252550
v -0.465774 0.472500 -0.252550
v 0.292174 0.718983 0.252550
v 0.292174 0.718983 -0.252550
v -0.383240 -0.440642 0.252550
v -0.383240 -0.440642 -0.252550
v 0.394973 -0.169771 0.252550
v 0.394973 -0.169771 -0.252550
v -0.310668 -0.649143 0.252550
v -0.310668 -0.649143 -0.252550
v 0.467545 -0.378272 0.252550
v 0.467545 -0.378272 -0.252550
vt 0.224547 0.656614
vt 0.117789 0.918689
vt 0.117789 0.655599
vt 0.345979 0.885014
vt 0.452702 0.655599
vt 0.452702 0.885014
vt 0.240446 0.377858
vt 0.469861 0.003677
vt 0.469861 0.377858
vt 0.231901 0.885014
vt 0.338625 0.655599
vt 0.338625 0.885014
vt 0.003677 0.656614
vt 0.110435 0.918689
vt 0.003677 0.919704
vt 0.821611 0.747296
vt 0.921706 0.385293
vt 0.921706 0.747296
vt 0.706630 0.735038
vt 0.477215 0.373034
vt 0.706630 0.373035
vt 0.814078 0.996323
vt 0.713984 0.766908
vt 0.814078 0.766908
vt 0.921705 0.984065
vt 0.821611 0.754650
vt 0.921705 0.754650
vt 0.821611 0.003677
vt 0.921706 0.365681
vt 0.821611 0.365681
vt 0.584813 0.742392
vt 0.685058 0.971807
vt 0.584813 0.971807
vt 0.469861 0.385212
vt 0.240446 0.648245
vt 0.240446 0.385212
vt 0.003677 0.385212
vt 0.233092 0.648245
vt 0.003677 0.648245
vt 0.706630 0.365681
vt 0.477215 0.003677
vt 0.706630 0.003677
vt 0.003677 0.003677
vt 0.233092 0.377858
vt 0.003677 0.377858
vt 0.477215 0.742392
vt 0.577459 0.971807
vt 0.477215 0.971807
vt 0.713984 0.385293
vt 0.814257 0.759554
vt 0.713984 0.759554
vt 0.814257 0.377939
vt 0.713984 0.003677
vt 0.814257 0.003677
vt 0.224547 0.919704
vt 0.345979 0.655599
vt 0.240446 0.003677
vt 0.231901 0.655599
vt 0.110435 0.655599
vt 0.821611 0.385293
vt 0.477215 0.735038
vt 0.713984 0.996323
vt 0.821611 0.984065
vt 0.921706 0.003677
vt 0.685058 0.742392
vt 0.469861 0.648245
vt 0.233092 0.385212
vt 0.477215 0.365681
vt 0.233092 0.003677
vt 0.577459 0.742392
vt 0.814257 0.385293
vt 0.713984 0.377939
vn 0.0000 0.0000 -1.0000
vn 0.9600 0.2801 0.0000
vn -0.3287 0.9444 0.0000
vn -0.9600 -0.2801 0.0000
vn 0.0000 0.0000 1.0000
vn -0.3093 0.9510 0.0000
vn -0.9510 -0.3093 0.0000
vn 0.9510 0.3093 0.0000
vn 0.9444 0.3287 0.0000
vn -0.2892 0.9573 0.0000
vn 0.2892 -0.9573 0.0000
vn 0.3093 -0.9510 0.0000
vn 0.3287 -0.9444 0.0000
vn -0.9444 -0.3287 0.0000
usemtl Material
s off
f 3/1/1 8/2/1 4/3/1
f 7/4/2 6/5/2 8/6/2
f 20/7/3 17/8/3 19/9/3
f 1/10/4 4/11/4 2/12/4
f 6/13/5 1/14/5 2/15/5
f 9/16/5 15/17/5 13/18/5
f 15/19/6 14/20/6 13/21/6
f 9/22/7 14/23/7 10/24/7
f 12/25/8 15/26/8 11/27/8
f 10/28/1 16/29/1 12/30/1
f 19/31/9 24/32/9 20/33/9
f 1/34/10 7/35/10 3/36/10
f 2/37/11 8/38/11 6/39/11
f 12/40/12 9/41/12 10/42/12
f 21/43/13 24/44/13 23/45/13
f 18/46/14 21/47/14 17/48/14
f 17/49/5 23/50/5 19/51/5
f 20/52/1 22/53/1 18/54/1
f 3/1/1 7/55/1 8/2/1
f 7/4/2 5/56/2 6/5/2
f 20/7/3 18/57/3 17/8/3
f 1/10/4 3/58/4 4/11/4
f 6/13/5 5/59/5 1/14/5
f 9/16/5 11/60/5 15/17/5
f 15/19/6 16/61/6 14/20/6
f 9/22/7 13/62/7 14/23/7
f 12/25/8 16/63/8 15/26/8
f 10/28/1 14/64/1 16/29/1
f 19/31/9 23/65/9 24/32/9
f 1/34/10 5/66/10 7/35/10
f 2/37/11 4/67/11 8/38/11
f 12/40/12 11/68/12 9/41/12
f 21/43/13 22/69/13 24/44/13
f 18/46/14 22/70/14 21/47/14
f 17/49/5 21/71/5 23/50/5
f 20/52/1 24/72/1 22/53/1
