# Blender v3.5.0 OBJ File: ''
# www.blender.org
mtllib do.mtl
o Cube
v -0.110789 0.506452 0.109224
v -0.110789 -0.506452 0.109224
v -0.110789 0.506452 -0.109224
v -0.110789 -0.506452 -0.109224
v 0.110789 0.506452 0.109224
v 0.110789 -0.506452 0.109224
v 0.110789 0.506452 -0.109224
v 0.110789 -0.506452 -0.109224
v -0.110789 0.010480 0.109224
v 0.110789 0.010480 -0.109224
v -0.110789 0.010480 -0.109224
v 0.110789 0.010480 0.109224
v 0.110789 0.253226 -0.109224
v -0.110789 0.253226 0.109224
v -0.110789 0.253226 -0.109224
v 0.110789 0.253226 0.109224
v -0.110789 -0.253357 0.109224
v -0.110789 -0.253357 -0.109224
v 0.110789 -0.253357 0.109224
v 0.110789 -0.253357 -0.109224
v -0.110789 0.184648 0.109224
v -0.110789 0.184648 -0.109224
v 0.110789 0.184648 0.109224
v 0.110789 0.184648 -0.109224
v -0.556321 -0.086144 0.077060
v -0.556321 -0.260313 0.077060
v -0.556321 -0.086144 -0.141387
v -0.556321 -0.260313 -0.141387
v -0.262883 0.441902 0.109224
v -0.262883 0.441902 -0.109224
v -0.401189 0.256820 0.109224
v -0.401189 0.256820 -0.109224
v -0.344454 0.502858 0.109224
v -0.344454 0.502858 -0.109224
v -0.482760 0.317776 0.109224
v -0.482760 0.317776 -0.109224
v -0.430188 0.492054 0.109224
v -0.430188 0.492054 -0.109224
v -0.569571 0.307896 0.109224
v -0.569571 0.307896 -0.109224
v -0.518692 0.558167 0.109224
v -0.518692 0.558167 -0.109224
v -0.658075 0.374008 0.109224
v -0.658075 0.374008 -0.109224
vt 0.643447 0.732287
vt 0.540099 0.856240
vt 0.540099 0.732287
vt 0.132327 0.581356
vt 0.006602 0.437667
vt 0.132327 0.437667
vt 0.914340 0.350610
vt 0.790386 0.264608
vt 0.914340 0.264608
vt 0.790386 0.487768
vt 0.893734 0.363814
vt 0.893734 0.487768
vt 0.691918 0.856402
vt 0.815872 0.732083
vt 0.815872 0.856402
vt 0.398494 0.006602
vt 0.524219 0.150290
vt 0.398494 0.150290
vt 0.398494 0.288032
vt 0.524219 0.437741
vt 0.398494 0.437741
vt 0.404399 0.770123
vt 0.280445 0.680517
vt 0.404399 0.680517
vt 0.914340 0.182165
vt 0.790386 0.092560
vt 0.914340 0.092560
vt 0.132327 0.299926
vt 0.006602 0.150216
vt 0.132327 0.150216
vt 0.524219 0.189203
vt 0.398494 0.189203
vt 0.440893 0.732287
vt 0.417603 0.856240
vt 0.417603 0.732287
vt 0.790386 0.241317
vt 0.914340 0.241317
vt 0.006602 0.398754
vt 0.132327 0.398754
vt 0.006602 0.006602
vt 0.132327 0.006602
vt 0.790386 0.006602
vt 0.914340 0.006602
vt 0.280445 0.594560
vt 0.404399 0.594560
vt 0.524219 0.581356
vt 0.398494 0.581356
vt 0.006602 0.299926
vt 0.790386 0.182165
vt 0.006602 0.890437
vt 0.130320 0.602205
vt 0.130320 0.898082
vt 0.524219 0.288032
vt 0.986696 0.006602
vt 0.927544 0.130556
vt 0.927544 0.006602
vt 0.385290 0.245098
vt 0.777182 0.342860
vt 0.777182 0.441689
vt 0.267241 0.890437
vt 0.143523 0.602205
vt 0.267241 0.594560
vt 0.927544 0.143759
vt 0.985326 0.267713
vt 0.927544 0.267713
vt 0.440893 0.856240
vt 0.526895 0.732287
vt 0.526895 0.856240
vt 0.891757 0.739599
vt 0.829076 0.870258
vt 0.829076 0.739207
vt 0.691918 0.594560
vt 0.815872 0.718879
vt 0.691918 0.718879
vt 0.904961 0.739209
vt 0.962741 0.870310
vt 0.904961 0.870312
vt 0.906938 0.363814
vt 0.964718 0.494919
vt 0.906938 0.494917
vt 0.417603 0.869444
vt 0.475384 0.993398
vt 0.417603 0.993398
vt 0.541556 0.719083
vt 0.417603 0.594560
vt 0.541556 0.594560
vt 0.904961 0.594560
vt 0.967645 0.718513
vt 0.904961 0.718513
vt 0.829076 0.594952
vt 0.891757 0.725611
vt 0.829076 0.726003
vt 0.280445 0.783327
vt 0.343130 0.907281
vt 0.280445 0.907281
vt 0.678714 0.719083
vt 0.554760 0.594560
vt 0.678714 0.594560
vt 0.643447 0.856240
vt 0.006602 0.581356
vt 0.790386 0.350610
vt 0.790386 0.363814
vt 0.691918 0.732083
vt 0.524219 0.006602
vt 0.280445 0.770123
vt 0.006602 0.594560
vt 0.986696 0.130556
vt 0.385290 0.146269
vt 0.143523 0.898082
vt 0.985326 0.143759
vt 0.891757 0.870651
vt 0.815872 0.594560
vt 0.962741 0.739207
vt 0.964718 0.363816
vt 0.475384 0.869444
vt 0.417603 0.719083
vt 0.967645 0.594560
vt 0.891757 0.594560
vt 0.343130 0.783327
vt 0.554760 0.719083
vn 0.0000 1.0000 0.0000
vn 0.0000 0.0000 -1.0000
vn 1.0000 0.0000 0.0000
vn 0.0000 -1.0000 0.0000
vn 0.8010 -0.5986 0.0000
vn 0.0000 0.0000 1.0000
vn -1.0000 0.0000 0.0000
vn -0.5194 0.8545 0.0000
vn 0.0720 0.0000 -0.9974
vn -0.0720 0.0000 0.9974
vn 0.5194 -0.8545 0.0000
vn -0.5986 -0.8010 0.0000
vn -0.8010 0.5986 0.0000
vn 0.5986 0.8010 0.0000
vn -0.7974 0.6035 0.0000
vn 0.5985 0.8012 0.0000
vn -0.5985 -0.8012 0.0000
vn 0.7974 -0.6035 0.0000
usemtl Material
s off
f 5/1/1 3/2/1 1/3/1
f 3/4/2 13/5/2 15/6/2
f 7/7/3 16/8/3 13/9/3
f 2/10/4 8/11/4 6/12/4
f 29/13/5 32/14/5 30/15/5
f 5/16/6 14/17/6 16/18/6
f 12/19/6 17/20/6 19/21/6
f 9/22/7 18/23/7 17/24/7
f 10/25/3 19/26/3 20/27/3
f 11/28/2 20/29/2 18/30/2
f 16/18/6 21/31/6 23/32/6
f 14/33/7 22/34/7 21/35/7
f 13/9/3 23/36/3 24/37/3
f 15/6/2 24/38/2 22/39/2
f 18/30/2 8/40/2 4/41/2
f 20/27/3 6/42/3 8/43/3
f 17/24/7 4/44/7 2/45/7
f 19/21/6 2/46/6 6/47/6
f 22/39/2 10/48/2 11/28/2
f 24/37/3 12/49/3 10/25/3
f 22/50/8 25/51/8 21/52/8
f 23/32/6 9/53/6 12/19/6
f 25/54/7 28/55/7 26/56/7
f 11/28/9 27/57/9 22/39/9
f 9/53/10 25/58/10 26/59/10
f 11/60/11 26/61/11 28/62/11
f 31/63/12 36/64/12 32/65/12
f 15/66/7 1/67/7 3/68/7
f 39/69/6 41/70/6 43/71/6
f 36/72/13 33/73/13 34/74/13
f 29/75/6 35/76/6 31/77/6
f 32/78/2 34/79/2 30/80/2
f 30/81/14 33/82/14 29/83/14
f 41/84/15 44/85/15 43/86/15
f 38/87/16 41/88/16 37/89/16
f 40/90/2 42/91/2 38/92/2
f 39/93/17 44/94/17 40/95/17
f 38/96/18 39/97/18 40/98/18
f 5/1/1 7/99/1 3/2/1
f 3/4/2 7/100/2 13/5/2
f 7/7/3 5/101/3 16/8/3
f 2/10/4 4/102/4 8/11/4
f 29/13/5 31/103/5 32/14/5
f 5/16/6 1/104/6 14/17/6
f 12/19/6 9/53/6 17/20/6
f 9/22/7 11/105/7 18/23/7
f 10/25/3 12/49/3 19/26/3
f 11/28/2 10/48/2 20/29/2
f 16/18/6 14/17/6 21/31/6
f 14/33/7 15/66/7 22/34/7
f 13/9/3 16/8/3 23/36/3
f 15/6/2 13/5/2 24/38/2
f 18/30/2 20/29/2 8/40/2
f 20/27/3 19/26/3 6/42/3
f 17/24/7 18/23/7 4/44/7
f 19/21/6 17/20/6 2/46/6
f 22/39/2 24/38/2 10/48/2
f 24/37/3 23/36/3 12/49/3
f 22/50/8 27/106/8 25/51/8
f 23/32/6 21/31/6 9/53/6
f 25/54/7 27/107/7 28/55/7
f 11/28/9 28/108/9 27/57/9
f 9/53/10 21/31/10 25/58/10
f 11/60/11 9/109/11 26/61/11
f 31/63/12 35/110/12 36/64/12
f 15/66/7 14/33/7 1/67/7
f 39/69/6 37/111/6 41/70/6
f 36/72/13 35/112/13 33/73/13
f 29/75/6 33/113/6 35/76/6
f 32/78/2 36/114/2 34/79/2
f 30/81/14 34/115/14 33/82/14
f 41/84/15 42/116/15 44/85/15
f 38/87/16 42/117/16 41/88/16
f 40/90/2 44/118/2 42/91/2
f 39/93/17 43/119/17 44/94/17
f 38/96/18 37/120/18 39/97/18
