# Blender v3.5.0 OBJ File: ''
# www.blender.org
mtllib so.mtl
o Cube
v 0.265450 0.473706 0.199893
v 0.068698 0.115788 0.199893
v 0.265450 0.473706 -0.199893
v 0.068698 0.115788 -0.199893
v 0.416604 0.390615 0.199893
v 0.219853 0.032697 0.199893
v 0.416604 0.390615 -0.199893
v 0.219853 0.032697 -0.199893
v -0.534621 0.221024 0.199893
v -0.534621 0.221024 -0.199893
v -0.362134 0.221024 0.199893
v -0.362134 0.221024 -0.199893
v -0.534621 0.430059 0.199893
v -0.534621 0.430059 -0.199893
v -0.362134 0.430059 0.199893
v -0.362134 0.430059 -0.199893
v -0.481871 0.068048 0.199893
v -0.481871 0.068048 -0.199893
v -0.309384 0.068048 0.199893
v -0.309384 0.068048 -0.199893
v -0.381645 -0.116578 0.199893
v -0.381645 -0.116578 -0.199893
v -0.209158 -0.116578 0.199893
v -0.209158 -0.116578 -0.199893
v -0.255045 -0.274829 0.199893
v -0.255045 -0.274829 -0.199893
v -0.082557 -0.274829 0.199893
v -0.082557 -0.274829 -0.199893
v -0.033493 -0.512205 0.199893
v -0.033493 -0.512205 -0.199893
v 0.138994 -0.512205 0.199893
v 0.138994 -0.512205 -0.199893
vt 0.349863 0.625363
vt 0.592490 0.543401
vt 0.592490 0.625363
vt 0.949436 0.794906
vt 0.844755 0.547033
vt 0.949436 0.547033
vt 0.598579 0.789660
vt 0.838666 0.547033
vt 0.838666 0.789660
vt 0.847295 0.519211
vt 0.948687 0.276584
vt 0.948687 0.519211
vt 0.003045 0.948608
vt 0.209116 0.705982
vt 0.209116 0.948608
vt 0.951976 0.250918
vt 0.847295 0.003045
vt 0.951975 0.003045
vt 0.349863 0.748240
vt 0.284205 0.164205
vt 0.176454 0.212051
vt 0.191783 0.115051
vt 0.349863 0.222262
vt 0.592490 0.105373
vt 0.592490 0.222263
vt 0.349863 0.754329
vt 0.451256 0.996955
vt 0.349863 0.996955
vt 0.316598 0.705982
vt 0.215206 0.948608
vt 0.215206 0.705982
vt 0.343774 0.052198
vt 0.110796 0.538733
vt 0.077942 0.699893
vt 0.018373 0.587886
vt 0.592490 0.317524
vt 0.349863 0.443909
vt 0.349863 0.317524
vt 0.003045 0.490886
vt 0.095467 0.441732
vt 0.349863 0.105373
vt 0.592490 0.003045
vt 0.004135 0.363398
vt 0.096558 0.314244
vt 0.268877 0.261205
vt 0.177545 0.339540
vt 0.349863 0.543401
vt 0.592490 0.449999
vt 0.119297 0.193372
vt 0.077942 0.052198
vt 0.170365 0.003045
vt 0.026874 0.242526
vt 0.269967 0.388693
vt 0.200284 0.460412
vt 0.598579 0.540944
vt 0.841205 0.442642
vt 0.841205 0.540944
vt 0.598579 0.003045
vt 0.841206 0.104437
vt 0.598579 0.104437
vt 0.292707 0.509565
vt 0.251351 0.650739
vt 0.598579 0.442642
vt 0.841206 0.276584
vt 0.598579 0.270495
vt 0.841205 0.270495
vt 0.844755 0.794906
vt 0.598579 0.547033
vt 0.847295 0.276584
vt 0.003045 0.705982
vt 0.847295 0.250918
vt 0.592490 0.748240
vt 0.451256 0.754329
vt 0.316598 0.948608
vt 0.251351 0.003045
vt 0.170365 0.650739
vt 0.592490 0.443910
vt 0.349863 0.003045
vt 0.349863 0.449999
vt 0.841206 0.003045
vt 0.343774 0.699893
vt 0.598579 0.276584
vn 0.9454 0.3260 0.0000
vn 0.0000 0.0000 -1.0000
vn 0.8763 -0.4817 0.0000
vn -0.4817 -0.8763 0.0000
vn -0.8763 0.4817 0.0000
vn 0.0000 0.0000 1.0000
vn 1.0000 0.0000 0.0000
vn -0.8789 -0.4771 0.0000
vn 0.4817 0.8763 0.0000
vn 0.0000 1.0000 0.0000
vn -1.0000 0.0000 0.0000
vn -0.9454 -0.3260 0.0000
vn -0.7809 -0.6247 0.0000
vn 0.8789 0.4771 0.0000
vn 0.7809 0.6247 0.0000
vn 0.0000 -1.0000 0.0000
vn 0.7311 0.6823 0.0000
vn -0.7311 -0.6823 0.0000
usemtl Material
s off
f 11/1/1 20/2/1 12/3/1
f 3/4/2 8/5/2 4/6/2
f 7/7/3 6/8/3 8/9/3
f 2/10/4 8/11/4 6/12/4
f 1/13/5 4/14/5 2/15/5
f 5/16/6 2/17/6 6/18/6
f 12/3/7 15/19/7 11/1/7
f 12/20/2 18/21/2 10/22/2
f 18/23/8 21/24/8 17/25/8
f 1/26/9 7/27/9 3/28/9
f 15/29/10 14/30/10 13/31/10
f 10/22/2 16/32/2 12/20/2
f 11/33/6 13/34/6 9/35/6
f 9/36/11 14/37/11 10/38/11
f 11/33/6 17/39/6 19/40/6
f 10/38/12 17/25/12 9/36/12
f 22/41/13 25/42/13 21/24/13
f 19/40/6 21/43/6 23/44/6
f 20/45/2 22/46/2 18/21/2
f 19/47/14 24/48/14 20/2/14
f 27/49/6 29/50/6 31/51/6
f 23/44/6 25/52/6 27/49/6
f 24/53/2 26/54/2 22/46/2
f 23/55/15 28/56/15 24/57/15
f 32/58/16 29/59/16 30/60/16
f 28/61/2 30/62/2 26/54/2
f 27/63/17 32/64/17 28/56/17
f 26/65/18 29/59/18 25/66/18
f 11/1/1 19/47/1 20/2/1
f 3/4/2 7/67/2 8/5/2
f 7/7/3 5/68/3 6/8/3
f 2/10/4 4/69/4 8/11/4
f 1/13/5 3/70/5 4/14/5
f 5/16/6 1/71/6 2/17/6
f 12/3/7 16/72/7 15/19/7
f 12/20/2 20/45/2 18/21/2
f 18/23/8 22/41/8 21/24/8
f 1/26/9 5/73/9 7/27/9
f 15/29/10 16/74/10 14/30/10
f 10/22/2 14/75/2 16/32/2
f 11/33/6 15/76/6 13/34/6
f 9/36/11 13/77/11 14/37/11
f 11/33/6 9/35/6 17/39/6
f 10/38/12 18/23/12 17/25/12
f 22/41/13 26/78/13 25/42/13
f 19/40/6 17/39/6 21/43/6
f 20/45/2 24/53/2 22/46/2
f 19/47/14 23/79/14 24/48/14
f 27/49/6 25/52/6 29/50/6
f 23/44/6 21/43/6 25/52/6
f 24/53/2 28/61/2 26/54/2
f 23/55/15 27/63/15 28/56/15
f 32/58/16 31/80/16 29/59/16
f 28/61/2 32/81/2 30/62/2
f 27/63/17 31/82/17 32/64/17
f 26/65/18 30/60/18 29/59/18
